<svg width="325" height="237" viewBox="0 0 325 237" fill="none" xmlns="http://www.w3.org/2000/svg">
<path d="M290.5 0H35.5C23.0736 0 13 10.0736 13 22.5V168C13 180.426 23.0736 190.5 35.5 190.5H290.5C302.926 190.5 313 180.426 313 168V22.5C313 10.0736 302.926 0 290.5 0Z" fill="#26356E"/>
<mask id="mask0_214_5" style="mask-type:alpha" maskUnits="userSpaceOnUse" x="13" y="0" width="300" height="191">
<path d="M290.5 0H35.5C23.0736 0 13 10.0736 13 22.5V168C13 180.426 23.0736 190.5 35.5 190.5H290.5C302.926 190.5 313 180.426 313 168V22.5C313 10.0736 302.926 0 290.5 0Z" fill="white"/>
</mask>
<g mask="url(#mask0_214_5)">
<path fill-rule="evenodd" clip-rule="evenodd" d="M310.557 198.585C310.557 198.585 222.854 200.249 143.051 138.749C63.25 77.2495 -41.2888 138.093 -52.9999 158.249C-64.7113 178.406 -30.247 259.022 -30.247 259.022L310.557 198.585Z" fill="#7CC4DB"/>
<path d="M265 99C314.291 99 354.25 59.0414 354.25 9.75C354.25 -39.5414 314.291 -79.5 265 -79.5C215.709 -79.5 175.75 -39.5414 175.75 9.75C175.75 59.0414 215.709 99 265 99Z" fill="#FBAB9A"/>
<path opacity="0.7" d="M33.8308 151.629C35.01 151.629 35.8779 150.952 36.0244 149.923H35.2078C35.0613 150.523 34.5303 150.9 33.8308 150.9C32.8787 150.9 32.2854 150.116 32.2854 148.86C32.2854 147.604 32.8787 146.817 33.8271 146.817C34.523 146.817 35.054 147.235 35.2078 147.89H36.0244C35.8926 146.831 34.9917 146.088 33.8271 146.088C32.3586 146.088 31.4468 147.15 31.4468 148.86C31.4468 150.567 32.3623 151.629 33.8308 151.629ZM40.3713 151.501H41.2429L39.335 146.216H38.4524L36.5445 151.501H37.3867L37.8738 150.073H39.888L40.3713 151.501ZM38.8516 147.15H38.9139L39.6792 149.413H38.0826L38.8516 147.15ZM42.9861 149.468H44.1433L45.22 151.501H46.1685L44.982 149.34C45.6265 149.124 46.0074 148.546 46.0074 147.831C46.0074 146.846 45.3225 146.216 44.2569 146.216H42.1658V151.501H42.9861V149.468ZM42.9861 146.905H44.1433C44.7768 146.905 45.165 147.26 45.165 147.85C45.165 148.454 44.7988 148.795 44.1653 148.795H42.9861V146.905ZM47.1756 146.216V151.501H49.0835C50.6582 151.501 51.5701 150.526 51.5701 148.846C51.5701 147.183 50.6509 146.216 49.0835 146.216H47.1756ZM47.9958 146.923H48.992C50.0869 146.923 50.7351 147.637 50.7351 148.857C50.7351 150.087 50.0979 150.794 48.992 150.794H47.9958V146.923ZM59.0847 151.501V146.216H58.2681V148.45H55.5545V146.216H54.7341V151.501H55.5545V149.161H58.2681V151.501H59.0847ZM62.6626 146.088C61.1465 146.088 60.1944 147.154 60.1944 148.857C60.1944 150.556 61.1245 151.629 62.6626 151.629C64.1897 151.629 65.1272 150.552 65.1272 148.857C65.1272 147.157 64.1824 146.088 62.6626 146.088ZM62.6626 146.813C63.6623 146.813 64.2886 147.604 64.2886 148.857C64.2886 150.098 63.666 150.904 62.6626 150.904C61.6446 150.904 61.0329 150.098 61.0329 148.857C61.0329 147.604 61.6629 146.813 62.6626 146.813ZM69.5364 150.787H67.0608V146.216H66.2405V151.501H69.5364V150.787ZM70.5765 146.216V151.501H72.4844C74.0591 151.501 74.9709 150.526 74.9709 148.846C74.9709 147.183 74.0517 146.216 72.4844 146.216H70.5765ZM71.3967 146.923H72.3928C73.4878 146.923 74.136 147.637 74.136 148.857C74.136 150.087 73.4988 150.794 72.3928 150.794H71.3967V146.923ZM79.4388 150.794H76.9046V149.149H79.3032V148.468H76.9046V146.923H79.4388V146.216H76.0842V151.501H79.4388V150.794ZM81.4455 149.468H82.6028L83.6795 151.501H84.6279L83.4414 149.34C84.0859 149.124 84.4668 148.546 84.4668 147.831C84.4668 146.846 83.782 146.216 82.7163 146.216H80.6253V151.501H81.4455V149.468ZM81.4455 146.905H82.6028C83.2363 146.905 83.6245 147.26 83.6245 147.85C83.6245 148.454 83.2583 148.795 82.6248 148.795H81.4455V146.905ZM88.4845 151.501V147.663H88.543L91.2565 151.501H91.996V146.216H91.198V150.061H91.1395L88.4253 146.216H87.6858V151.501H88.4845ZM96.7458 151.501H97.6172L95.7093 146.216H94.8272L92.9193 151.501H93.7615L94.2483 150.073H96.2627L96.7458 151.501ZM95.2263 147.15H95.2885L96.0535 149.413H94.4568L95.2263 147.15ZM103.887 151.501V146.216H102.927L101.243 150.351H101.181L99.4998 146.216H98.5405V151.501H99.3018V147.63H99.3535L100.902 151.405H101.525L103.074 147.63H103.125V151.501H103.887ZM108.567 150.794H106.033V149.149H108.432V148.468H106.033V146.923H108.567V146.216H105.212V151.501H108.567V150.794Z" fill="white"/>
<path d="M38.3103 169.5H40.1362L36.7547 159.987H34.843L31.468 169.5H33.1885L34.0059 167.041H37.5061L38.3103 169.5ZM35.7066 161.774H35.8186L37.1106 165.729H34.4014L35.7066 161.774ZM41.5996 169.5H43.2344V165.3C43.2344 164.22 43.8474 163.541 44.823 163.541C45.8184 163.541 46.2798 164.101 46.2798 165.222V169.5H47.9145V164.839C47.9145 163.125 47.0379 162.156 45.4295 162.156C44.355 162.156 43.6299 162.644 43.2871 163.449H43.1751V162.295H41.5996V169.5ZM50.6831 161.088C51.2236 161.088 51.6653 160.66 51.6653 160.119C51.6653 159.585 51.2236 159.15 50.6831 159.15C50.1492 159.15 49.7076 159.585 49.7076 160.119C49.7076 160.66 50.1492 161.088 50.6831 161.088ZM49.8723 169.5H51.5005V162.295H49.8723V169.5ZM54.0516 160.528V162.341H52.9111V163.613H54.0516V167.588C54.0516 168.979 54.7107 169.533 56.3652 169.533C56.6817 169.533 56.9849 169.506 57.2222 169.46V168.207C57.0244 168.228 56.8992 168.24 56.6685 168.24C55.9829 168.24 55.6797 167.918 55.6797 167.199V163.613H57.2222V162.341H55.6797V160.528H54.0516ZM60.8411 169.618C61.7837 169.618 62.5747 169.209 62.9768 168.511H63.0889V169.5H64.6643V164.576C64.6643 163.053 63.6228 162.156 61.7705 162.156C60.0567 162.156 58.8636 162.96 58.7317 164.22H60.2742C60.4258 163.725 60.9399 163.455 61.6914 163.455C62.5747 163.455 63.0493 163.857 63.0493 164.576V165.195L61.1904 165.307C59.437 165.406 58.4548 166.164 58.4548 167.456C58.4548 168.774 59.4502 169.618 60.8411 169.618ZM61.3223 168.359C60.5972 168.359 60.0765 167.997 60.0765 167.377C60.0765 166.777 60.5049 166.441 61.4211 166.382L63.0493 166.269V166.857C63.0493 167.713 62.311 168.359 61.3223 168.359ZM72.1065 165.921H73.9917L75.8572 169.5H77.8017L75.7254 165.663C76.8591 165.255 77.5183 164.206 77.5183 162.948C77.5183 161.128 76.2659 159.987 74.2686 159.987H70.4058V169.5H72.1065V165.921ZM72.1065 161.365H74.0313C75.1123 161.365 75.7715 161.979 75.7715 162.981C75.7715 164.002 75.1518 164.589 74.0708 164.589H72.1065V161.365ZM82.2974 169.644C84.4529 169.644 85.7646 168.234 85.7646 165.894C85.7646 163.567 84.4463 162.156 82.2974 162.156C80.155 162.156 78.8301 163.574 78.8301 165.894C78.8301 168.234 80.1353 169.644 82.2974 169.644ZM82.2974 168.306C81.157 168.306 80.5044 167.423 80.5044 165.9C80.5044 164.378 81.157 163.494 82.2974 163.494C83.4312 163.494 84.0837 164.378 84.0837 165.9C84.0837 167.423 83.4378 168.306 82.2974 168.306ZM87.2478 164.352C87.2478 165.432 87.9004 166.065 89.2848 166.382L90.5635 166.678C91.249 166.836 91.5588 167.1 91.5588 167.509C91.5588 168.056 90.985 168.432 90.1615 168.432C89.344 168.432 88.8363 168.102 88.678 167.568H87.0633C87.1885 168.867 88.3225 169.644 90.1218 169.644C91.9218 169.644 93.1938 168.729 93.1938 167.351C93.1938 166.29 92.554 165.703 91.1763 165.387L89.9043 165.103C89.179 164.931 88.8363 164.674 88.8363 164.265C88.8363 163.732 89.3965 163.369 90.1413 163.369C90.9063 163.369 91.3878 163.699 91.5063 164.206H93.0423C92.923 162.908 91.849 162.156 90.1353 162.156C88.4343 162.156 87.2478 163.059 87.2478 164.352ZM99.5478 167.529C99.3108 168.069 98.7505 168.372 97.9398 168.372C96.865 168.372 96.1728 167.608 96.1338 166.389V166.302H101.17V165.782C101.17 163.521 99.937 162.156 97.8805 162.156C95.791 162.156 94.492 163.613 94.492 165.927C94.492 168.234 95.7708 169.644 97.8933 169.644C99.5943 169.644 100.8 168.828 101.097 167.529H99.5478ZM97.8738 163.428C98.8563 163.428 99.502 164.121 99.535 165.215H96.1405C96.2125 164.134 96.898 163.428 97.8738 163.428Z" fill="white"/>
<path opacity="0.7" d="M220.047 151.497L221.925 146.213H221.054L219.637 150.516H219.575L218.15 146.213H217.257L219.146 151.497H220.047ZM225.793 151.497H226.665L224.757 146.213H223.874L221.966 151.497H222.808L223.296 150.069H225.309L225.793 151.497ZM224.273 147.147H224.335L225.101 149.41H223.504L224.273 147.147ZM228.408 151.497V146.213H227.587V151.497H228.408ZM229.734 146.213V151.497H231.641C233.216 151.497 234.128 150.523 234.128 148.842C234.128 147.18 233.208 146.213 231.641 146.213H229.734ZM230.553 146.919H231.549C232.644 146.919 233.293 147.634 233.293 148.854C233.293 150.084 232.656 150.791 231.549 150.791H230.553V146.919ZM239.453 151.497V146.919H241.111V146.213H236.97V146.919H238.632V151.497H239.453ZM246.469 151.497V146.213H245.652V148.447H242.939V146.213H242.118V151.497H242.939V149.157H245.652V151.497H246.469ZM248.615 149.465H249.772L250.849 151.497H251.797L250.611 149.337C251.256 149.121 251.637 148.542 251.637 147.828C251.637 146.843 250.952 146.213 249.886 146.213H247.795V151.497H248.615V149.465ZM248.615 146.901H249.772C250.406 146.901 250.794 147.257 250.794 147.846C250.794 148.451 250.428 148.791 249.795 148.791H248.615V146.901ZM253.617 146.213H252.797V149.677C252.797 150.82 253.614 151.626 254.936 151.626C256.266 151.626 257.079 150.82 257.079 149.677V146.213H256.258V149.611C256.258 150.366 255.778 150.897 254.936 150.897C254.097 150.897 253.617 150.366 253.617 149.611V146.213Z" fill="white"/>
<path d="M221.489 169.736C223.764 169.736 225.114 167.897 225.114 164.746C225.114 161.589 223.743 159.75 221.489 159.75C219.228 159.75 217.857 161.589 217.857 164.733C217.857 167.89 219.208 169.736 221.489 169.736ZM221.489 168.358C220.283 168.358 219.578 167.106 219.578 164.733C219.578 162.38 220.296 161.134 221.489 161.134C222.682 161.134 223.394 162.373 223.394 164.733C223.394 167.112 222.696 168.358 221.489 168.358ZM230.296 169.73C232.715 169.73 234.152 167.838 234.152 164.628C234.152 161.477 232.623 159.75 230.349 159.75C228.279 159.75 226.815 161.14 226.815 163.085C226.815 164.911 228.134 166.242 229.947 166.242C231.06 166.242 231.963 165.729 232.412 164.826H232.524C232.504 167.06 231.706 168.339 230.316 168.339C229.498 168.339 228.846 167.89 228.641 167.166H226.947C227.224 168.714 228.555 169.73 230.296 169.73ZM230.355 164.931C229.248 164.931 228.483 164.153 228.483 163.032C228.483 161.958 229.287 161.134 230.361 161.134C231.436 161.134 232.24 161.971 232.24 163.065C232.24 164.146 231.456 164.931 230.355 164.931ZM236.492 171.536L239.907 159.506H238.437L235.016 171.536H236.492ZM243.282 169.499H244.983V159.987H243.288L240.803 161.733V163.335L243.17 161.661H243.282V169.499ZM248.1 169.499H249.88L253.947 161.404V159.987H247.329V161.378H252.234V161.483L248.1 169.499Z" fill="white"/>
<path opacity="0.7" d="M33.8308 75.1287C35.01 75.1287 35.8779 74.4512 36.0244 73.4221H35.2078C35.0613 74.0227 34.5303 74.3999 33.8308 74.3999C32.8787 74.3999 32.2854 73.6162 32.2854 72.3601C32.2854 71.104 32.8787 70.3167 33.8271 70.3167C34.523 70.3167 35.054 70.7341 35.2078 71.3896H36.0244C35.8926 70.3313 34.9917 69.5879 33.8271 69.5879C32.3586 69.5879 31.4468 70.6499 31.4468 72.3601C31.4468 74.0667 32.3623 75.1287 33.8308 75.1287ZM40.3713 75.0005H41.2429L39.335 69.7161H38.4524L36.5445 75.0005H37.3867L37.8738 73.5723H39.888L40.3713 75.0005ZM38.8516 70.6499H38.9139L39.6792 72.9131H38.0826L38.8516 70.6499ZM42.9861 72.968H44.1433L45.22 75.0005H46.1685L44.982 72.8398C45.6265 72.6238 46.0074 72.0452 46.0074 71.331C46.0074 70.3459 45.3225 69.7161 44.2569 69.7161H42.1658V75.0005H42.9861V72.968ZM42.9861 70.4046H44.1433C44.7768 70.4046 45.165 70.7598 45.165 71.3493C45.165 71.9536 44.7988 72.2942 44.1653 72.2942H42.9861V70.4046ZM47.1756 69.7161V75.0005H49.0835C50.6582 75.0005 51.5701 74.0264 51.5701 72.3455C51.5701 70.6829 50.6509 69.7161 49.0835 69.7161H47.1756ZM47.9958 70.4229H48.992C50.0869 70.4229 50.7351 71.1369 50.7351 72.3564C50.7351 73.5869 50.0979 74.2937 48.992 74.2937H47.9958V70.4229ZM55.5325 75.0005V71.1626H55.5911L58.3047 75.0005H59.0445V69.7161H58.2461V73.5613H58.1875L55.4739 69.7161H54.7341V75.0005H55.5325ZM61.1868 69.7161H60.3665V73.1804C60.3665 74.323 61.1831 75.1287 62.5051 75.1287C63.8345 75.1287 64.6475 74.323 64.6475 73.1804V69.7161H63.8271V73.1145C63.8271 73.8689 63.3474 74.3999 62.5051 74.3999C61.6665 74.3999 61.1868 73.8689 61.1868 73.1145V69.7161ZM71.3162 75.0005V69.7161H70.3567L68.6721 73.8506H68.6099L66.929 69.7161H65.9695V75.0005H66.7312V71.1297H66.7825L68.3315 74.9052H68.9541L70.5032 71.1297H70.5545V75.0005H71.3162ZM74.8135 75.0005C75.9414 75.0005 76.6189 74.4365 76.6189 73.5063C76.6189 72.8142 76.1428 72.3088 75.4287 72.2319V72.1697C75.9487 72.0818 76.3552 71.5874 76.3552 71.0344C76.3552 70.2214 75.7583 69.7161 74.7659 69.7161H72.6419V75.0005H74.8135ZM73.4622 70.3863H74.5755C75.1833 70.3863 75.5386 70.6755 75.5386 71.1772C75.5386 71.6936 75.1614 71.9646 74.4362 71.9646H73.4622V70.3863ZM73.4622 74.3303V72.5908H74.6011C75.3738 72.5908 75.7803 72.8838 75.7803 73.4551C75.7803 74.0264 75.3884 74.3303 74.6486 74.3303H73.4622ZM81.0281 74.2937H78.4939V72.6494H80.8926V71.9682H78.4939V70.4229H81.0281V69.7161H77.6735V75.0005H81.0281V74.2937ZM83.0349 72.968H84.1922L85.2688 75.0005H86.2172L85.0307 72.8398C85.6753 72.6238 86.0561 72.0452 86.0561 71.331C86.0561 70.3459 85.3713 69.7161 84.3056 69.7161H82.2146V75.0005H83.0349V72.968ZM83.0349 70.4046H84.1922C84.8257 70.4046 85.2139 70.7598 85.2139 71.3493C85.2139 71.9536 84.8477 72.2942 84.2141 72.2942H83.0349V70.4046Z" fill="white"/>
<path d="M35.5988 95.118H37.3223C39.0171 95.118 40.0454 95.9655 40.0454 97.3462C40.0454 98.679 38.9314 99.5745 37.3508 99.5745C35.7608 99.5745 34.6848 98.7555 34.58 97.4797H32.2283C32.3425 99.9645 34.3896 101.593 37.3794 101.593C40.3501 101.593 42.5591 99.879 42.5591 97.5172C42.5591 95.6415 41.3879 94.4325 39.5217 94.1467V93.9847C40.9785 93.5947 42.0164 92.4997 42.0259 90.843C42.0354 88.872 40.3882 87.168 37.4651 87.168C34.4849 87.168 32.6186 88.8532 32.4949 91.2622H34.799C34.9038 89.8905 35.8369 89.1292 37.3318 89.1292C38.7886 89.1292 39.655 90.024 39.655 91.1572C39.655 92.4045 38.6838 93.2805 37.2746 93.2805H35.5988V95.118ZM51.4441 101.593C54.6147 101.593 56.7857 99.9547 56.7857 97.5652C56.7857 95.7945 55.6049 94.404 53.8149 94.071V93.909C55.2908 93.5377 56.2238 92.3662 56.2238 90.8812C56.2238 88.7197 54.2434 87.168 51.4536 87.168C48.6638 87.168 46.6738 88.7197 46.6738 90.8812C46.6738 92.3572 47.626 93.5467 49.0922 93.909V94.071C47.2927 94.4422 46.1216 95.832 46.1216 97.575C46.1216 99.9547 48.2924 101.593 51.4441 101.593ZM51.4536 93.1852C50.054 93.1852 49.0922 92.3475 49.0922 91.1092C49.0922 89.8717 50.0444 89.0152 51.4536 89.0152C52.8533 89.0152 53.8054 89.8717 53.8054 91.1092C53.8054 92.3377 52.8437 93.1852 51.4536 93.1852ZM51.4536 99.717C49.7969 99.717 48.6543 98.7555 48.6543 97.3747C48.6543 95.9842 49.7969 95.0227 51.4536 95.0227C53.1008 95.0227 54.2434 95.9842 54.2434 97.3747C54.2434 98.7555 53.1104 99.717 51.4536 99.717ZM60.4529 91.5765H62.7571C62.7571 90.129 63.7092 89.139 65.2041 89.139C66.6419 89.139 67.4987 90.1005 67.4987 91.3477C67.4987 92.3947 67.0798 93.0517 65.3469 94.8037L60.5861 99.5932V101.25H70.1267V99.2122H63.9187V99.0502L66.8703 96.1462C69.2317 93.8325 69.9267 92.7187 69.9267 91.119C69.9267 88.8337 68.0701 87.168 65.3374 87.168C62.4714 87.168 60.4529 88.977 60.4529 91.5765ZM78.7927 101.583C82.2871 101.583 84.3628 98.8507 84.3628 94.2135C84.3628 89.6625 82.1538 87.168 78.8689 87.168C75.8792 87.168 73.7654 89.1765 73.7654 91.9852C73.7654 94.623 75.6697 96.5467 78.2881 96.5467C79.8972 96.5467 81.2016 95.8035 81.8491 94.4992H82.0109C81.9824 97.7272 80.8303 99.5745 78.8213 99.5745C77.6406 99.5745 76.698 98.9265 76.4028 97.8795H73.9558C74.3557 100.117 76.2791 101.583 78.7927 101.583ZM78.8784 94.6515C77.2788 94.6515 76.1743 93.528 76.1743 91.9095C76.1743 90.3577 77.3359 89.1675 78.8879 89.1675C80.4399 89.1675 81.6016 90.3765 81.6016 91.9567C81.6016 93.5182 80.4685 94.6515 78.8784 94.6515ZM100.819 101.25H103.171V98.6122H105.027V96.5842H103.171V87.5107H99.7045C97.8385 90.348 95.887 93.5092 94.1065 96.6037V98.6122H100.819V101.25ZM96.382 96.4987C97.7245 94.1662 99.3145 91.6237 100.724 89.472H100.857V96.6412H96.382V96.4987ZM113.817 101.593C116.987 101.593 119.159 99.9547 119.159 97.5652C119.159 95.7945 117.978 94.404 116.188 94.071V93.909C117.664 93.5377 118.597 92.3662 118.597 90.8812C118.597 88.7197 116.616 87.168 113.827 87.168C111.037 87.168 109.046 88.7197 109.046 90.8812C109.046 92.3572 109.999 93.5467 111.465 93.909V94.071C109.666 94.4422 108.494 95.832 108.494 97.575C108.494 99.9547 110.666 101.593 113.817 101.593ZM113.827 93.1852C112.427 93.1852 111.465 92.3475 111.465 91.1092C111.465 89.8717 112.418 89.0152 113.827 89.0152C115.226 89.0152 116.178 89.8717 116.178 91.1092C116.178 92.3377 115.217 93.1852 113.827 93.1852ZM113.827 99.717C112.17 99.717 111.027 98.7555 111.027 97.3747C111.027 95.9842 112.17 95.0227 113.827 95.0227C115.474 95.0227 116.616 95.9842 116.616 97.3747C116.616 98.7555 115.484 99.717 113.827 99.717ZM122.826 91.5765H125.13C125.13 90.129 126.082 89.139 127.577 89.139C129.015 89.139 129.872 90.1005 129.872 91.3477C129.872 92.3947 129.453 93.0517 127.72 94.8037L122.959 99.5932V101.25H132.5V99.2122H126.292V99.0502L129.243 96.1462C131.605 93.8325 132.299 92.7187 132.299 91.119C132.299 88.8337 130.443 87.168 127.71 87.168C124.844 87.168 122.826 88.977 122.826 91.5765ZM141.413 101.593C144.698 101.593 146.65 98.9362 146.65 94.3852C146.65 89.8245 144.67 87.168 141.413 87.168C138.147 87.168 136.167 89.8245 136.167 94.3657C136.167 98.9265 138.119 101.593 141.413 101.593ZM141.413 99.603C139.671 99.603 138.652 97.794 138.652 94.3657C138.652 90.9667 139.69 89.1675 141.413 89.1675C143.137 89.1675 144.165 90.957 144.165 94.3657C144.165 97.803 143.156 99.603 141.413 99.603ZM163.154 101.25H165.506V98.6122H167.362V96.5842H165.506V87.5107H162.04C160.173 90.348 158.222 93.5092 156.441 96.6037V98.6122H163.154V101.25ZM158.717 96.4987C160.059 94.1662 161.649 91.6237 163.058 89.472H163.192V96.6412H158.717V96.4987ZM176.285 101.583C179.275 101.583 181.389 99.5835 181.389 96.7657C181.389 94.128 179.475 92.2042 176.866 92.2042C175.247 92.2042 173.953 92.9475 173.305 94.2517H173.143C173.162 90.9667 174.353 89.1765 176.39 89.1765C177.609 89.1765 178.504 89.805 178.742 90.8812H181.199C180.856 88.6627 178.98 87.168 176.342 87.168C172.934 87.168 170.792 89.91 170.792 94.5375C170.792 99.2407 173.105 101.583 176.285 101.583ZM176.266 99.5835C174.714 99.5835 173.552 98.3745 173.552 96.7845C173.552 95.2132 174.676 94.08 176.276 94.08C177.875 94.08 178.98 95.2132 178.98 96.8317C178.98 98.3932 177.809 99.5835 176.266 99.5835ZM185.027 91.5765H187.331C187.331 90.129 188.284 89.139 189.779 89.139C191.216 89.139 192.074 90.1005 192.074 91.3477C192.074 92.3947 191.654 93.0517 189.922 94.8037L185.161 99.5932V101.25H194.702V99.2122H188.493V99.0502L191.445 96.1462C193.806 93.8325 194.501 92.7187 194.501 91.119C194.501 88.8337 192.644 87.168 189.912 87.168C187.046 87.168 185.027 88.977 185.027 91.5765ZM203.367 101.583C206.861 101.583 208.937 98.8507 208.937 94.2135C208.937 89.6625 206.729 87.168 203.444 87.168C200.453 87.168 198.34 89.1765 198.34 91.9852C198.34 94.623 200.244 96.5467 202.862 96.5467C204.472 96.5467 205.776 95.8035 206.423 94.4992H206.585C206.557 97.7272 205.405 99.5745 203.396 99.5745C202.215 99.5745 201.272 98.9265 200.978 97.8795H198.53C198.93 100.117 200.854 101.583 203.367 101.583ZM203.453 94.6515C201.854 94.6515 200.749 93.528 200.749 91.9095C200.749 90.3577 201.911 89.1675 203.462 89.1675C205.015 89.1675 206.176 90.3765 206.176 91.9567C206.176 93.5182 205.043 94.6515 203.453 94.6515ZM224.013 101.593C227.012 101.593 229.021 99.6217 229.021 96.7462C229.021 93.9847 227.117 92.2237 224.765 92.2237C223.365 92.2237 222.356 92.7 221.747 93.5467H221.585L221.966 89.529H228.288V87.5107H220.052L219.299 95.499H221.528C221.994 94.5945 222.899 94.0515 224.07 94.0515C225.584 94.0515 226.65 95.1465 226.65 96.7845C226.65 98.4697 225.584 99.5932 224.003 99.5932C222.604 99.5932 221.546 98.7457 221.394 97.4602H219.1C219.204 99.8692 221.175 101.593 224.013 101.593ZM237.821 101.593C241.106 101.593 243.057 98.9362 243.057 94.3852C243.057 89.8245 241.077 87.168 237.821 87.168C234.554 87.168 232.574 89.8245 232.574 94.3657C232.574 98.9265 234.526 101.593 237.821 101.593ZM237.821 99.603C236.078 99.603 235.059 97.794 235.059 94.3657C235.059 90.9667 236.097 89.1675 237.821 89.1675C239.544 89.1675 240.572 90.957 240.572 94.3657C240.572 97.803 239.563 99.603 237.821 99.603ZM246.734 91.5765H249.038C249.038 90.129 249.99 89.139 251.485 89.139C252.923 89.139 253.78 90.1005 253.78 91.3477C253.78 92.3947 253.361 93.0517 251.628 94.8037L246.867 99.5932V101.25H256.408V99.2122H250.2V99.0502L253.151 96.1462C255.513 93.8325 256.208 92.7187 256.208 91.119C256.208 88.8337 254.351 87.168 251.618 87.168C248.753 87.168 246.734 88.977 246.734 91.5765ZM265.265 101.593C268.264 101.593 270.272 99.6217 270.272 96.7462C270.272 93.9847 268.368 92.2237 266.016 92.2237C264.617 92.2237 263.608 92.7 262.998 93.5467H262.836L263.217 89.529H269.54V87.5107H261.303L260.551 95.499H262.779C263.246 94.5945 264.15 94.0515 265.322 94.0515C266.835 94.0515 267.902 95.1465 267.902 96.7845C267.902 98.4697 266.835 99.5932 265.255 99.5932C263.855 99.5932 262.798 98.7457 262.646 97.4602H260.351C260.456 99.8692 262.427 101.593 265.265 101.593Z" fill="white"/>
<path d="M44.5 45C51.9558 45 58 38.9558 58 31.5C58 24.0442 51.9558 18 44.5 18C37.0442 18 31 24.0442 31 31.5C31 38.9558 37.0442 45 44.5 45Z" fill="white"/>
<path opacity="0.36" d="M61 45C68.4558 45 74.5 38.9558 74.5 31.5C74.5 24.0442 68.4558 18 61 18C53.5442 18 47.5 24.0442 47.5 31.5C47.5 38.9558 53.5442 45 61 45Z" fill="white"/>
</g>
<path d="M300.625 29.9199H24.375C10.9131 29.9199 0 40.866 0 54.3687V212.471C0 225.974 10.9131 236.92 24.375 236.92H300.625C314.087 236.92 325 225.974 325 212.471V54.3687C325 40.866 314.087 29.9199 300.625 29.9199Z" fill="black"/>
<mask id="mask1_214_5" style="mask-type:alpha" maskUnits="userSpaceOnUse" x="0" y="29" width="325" height="208">
<path d="M300.625 29.9199H24.375C10.9131 29.9199 0 40.866 0 54.3687V212.471C0 225.974 10.9131 236.92 24.375 236.92H300.625C314.087 236.92 325 225.974 325 212.471V54.3687C325 40.866 314.087 29.9199 300.625 29.9199Z" fill="black"/>
</mask>
<g mask="url(#mask1_214_5)">
<path d="M139.507 167.795L38.9365 94.5044C28.7716 87.0968 14.5445 89.357 7.15926 99.5527L-65.9098 200.428C-73.295 210.624 -71.0416 224.894 -60.8768 232.302L39.6942 305.592C49.859 313 64.0862 310.739 71.4714 300.544L144.54 199.668C151.926 189.473 149.672 175.202 139.507 167.795Z" fill="#444444"/>
<path fill-rule="evenodd" clip-rule="evenodd" d="M285.3 185.955L277.335 198.258C274.646 202.41 269.111 203.59 264.971 200.893L252.705 192.904C248.566 190.207 247.389 184.655 250.078 180.503L258.043 168.2C260.731 164.048 266.267 162.868 270.406 165.565L282.672 173.554C286.812 176.25 287.988 181.803 285.3 185.955ZM275.972 197.37L283.937 185.067C286.136 181.67 285.174 177.127 281.787 174.921L269.522 166.931C266.134 164.725 261.605 165.691 259.406 169.088L251.44 181.391C249.241 184.788 250.204 189.331 253.591 191.537L265.856 199.527C269.243 201.733 273.772 200.767 275.972 197.37Z" fill="#444444"/>
<path opacity="0.301849" d="M151.384 80.3265L155.367 74.1751C156.834 71.9103 156.192 68.8819 153.934 67.4111L147.801 63.4163C145.543 61.9455 142.524 62.5892 141.057 64.8541L137.075 71.0054C135.608 73.2703 136.25 76.2987 138.508 77.7695L144.641 81.7642C146.899 83.235 149.918 82.5913 151.384 80.3265Z" fill="#E5EAF2"/>
<path d="M335.493 77.5529L321.209 35.9427C317.702 25.729 306.605 20.3002 296.422 23.817L254.938 38.1446C244.755 41.6614 239.343 52.7922 242.849 63.0058L257.133 104.616C260.639 114.83 271.736 120.259 281.919 116.742L323.404 102.414C333.587 98.8973 338.999 87.7666 335.493 77.5529Z" fill="#444444"/>
<path opacity="0.7" d="M22.5667 194.681C23.8442 194.681 24.7844 193.945 24.9431 192.827H24.0585C23.8997 193.479 23.3244 193.889 22.5667 193.889C21.5352 193.889 20.8925 193.037 20.8925 191.672C20.8925 190.308 21.5352 189.452 22.5627 189.452C23.3166 189.452 23.8918 189.906 24.0585 190.619H24.9431C24.8003 189.468 23.8244 188.66 22.5627 188.66C20.9718 188.66 19.984 189.814 19.984 191.672C19.984 193.527 20.9758 194.681 22.5667 194.681ZM29.6523 194.542H30.5965L28.5296 188.8H27.5734L25.5065 194.542H26.4189L26.9466 192.99H29.1286L29.6523 194.542ZM28.0059 189.814H28.0733L28.9025 192.274H27.1728L28.0059 189.814ZM32.4849 192.333H33.7386L34.905 194.542H35.9325L34.6471 192.194C35.3454 191.959 35.758 191.331 35.758 190.554C35.758 189.484 35.0161 188.8 33.8616 188.8H31.5963V194.542H32.4849V192.333ZM32.4849 189.548H33.7386C34.4249 189.548 34.8454 189.934 34.8454 190.574C34.8454 191.231 34.4487 191.601 33.7624 191.601H32.4849V189.548ZM37.0235 188.8V194.542H39.0904C40.7964 194.542 41.7843 193.483 41.7843 191.657C41.7843 189.85 40.7885 188.8 39.0904 188.8H37.0235ZM37.9121 189.567H38.9913C40.1775 189.567 40.8797 190.344 40.8797 191.669C40.8797 193.006 40.1894 193.774 38.9913 193.774H37.9121V189.567ZM49.9251 194.542V188.8H49.0404V191.227H46.1007V188.8H45.212V194.542H46.1007V191.999H49.0404V194.542H49.9251ZM53.8012 188.66C52.1587 188.66 51.1272 189.818 51.1272 191.669C51.1272 193.515 52.1349 194.681 53.8012 194.681C55.4555 194.681 56.4711 193.511 56.4711 191.669C56.4711 189.822 55.4476 188.66 53.8012 188.66ZM53.8012 189.448C54.8842 189.448 55.5627 190.308 55.5627 191.669C55.5627 193.018 54.8882 193.893 53.8012 193.893C52.6983 193.893 52.0357 193.018 52.0357 191.669C52.0357 190.308 52.7181 189.448 53.8012 189.448ZM61.2477 193.766H58.5659V188.8H57.6772V194.542H61.2477V193.766ZM62.3745 188.8V194.542H64.4414C66.1473 194.542 67.1352 193.483 67.1352 191.657C67.1352 189.85 66.1394 188.8 64.4414 188.8H62.3745ZM63.2631 189.567H64.3422C65.5285 189.567 66.2306 190.344 66.2306 191.669C66.2306 193.006 65.5403 193.774 64.3422 193.774H63.2631V189.567ZM71.9753 193.774H69.23V191.987H71.8285V191.247H69.23V189.567H71.9753V188.8H68.3412V194.542H71.9753V193.774ZM74.1493 192.333H75.403L76.5694 194.542H77.5969L76.3115 192.194C77.0097 191.959 77.4224 191.331 77.4224 190.554C77.4224 189.484 76.6805 188.8 75.526 188.8H73.2607V194.542H74.1493V192.333ZM74.1493 189.548H75.403C76.0893 189.548 76.5099 189.934 76.5099 190.574C76.5099 191.231 76.1131 191.601 75.4268 191.601H74.1493V189.548ZM81.7749 194.542V190.372H81.8382L84.7779 194.542H85.579V188.8H84.7145V192.978H84.6511L81.7107 188.8H80.9096V194.542H81.7749ZM90.7246 194.542H91.6687L89.6017 188.8H88.6462L86.5792 194.542H87.4916L88.0189 192.99H90.2013L90.7246 194.542ZM89.0784 189.814H89.1459L89.9746 192.274H88.2448L89.0784 189.814ZM98.4612 194.542V188.8H97.4212L95.5963 193.292H95.5289L93.7081 188.8H92.6689V194.542H93.4936V190.336H93.5496L95.2274 194.438H95.9018L97.5804 190.336H97.6357V194.542H98.4612ZM103.531 193.774H100.786V191.987H103.384V191.247H100.786V189.567H103.531V188.8H99.8969V194.542H103.531V193.774Z" fill="white"/>
<path d="M27.4195 214.101H29.3976L25.7342 203.765H23.6633L20.007 214.101H21.8709L22.7564 211.43H26.5483L27.4195 214.101ZM24.5988 205.706H24.7202L26.1199 210.004H23.1849L24.5988 205.706ZM30.9829 214.101H32.7539V209.538C32.7539 208.364 33.4181 207.626 34.475 207.626C35.5532 207.626 36.0531 208.235 36.0531 209.453V214.101H37.8241V209.037C37.8241 207.175 36.8744 206.122 35.1319 206.122C33.9679 206.122 33.1824 206.652 32.811 207.526H32.6897V206.273H30.9829V214.101ZM40.8233 204.961C41.4089 204.961 41.8874 204.496 41.8874 203.908C41.8874 203.328 41.4089 202.855 40.8233 202.855C40.2449 202.855 39.7665 203.328 39.7665 203.908C39.7665 204.496 40.2449 204.961 40.8233 204.961ZM39.945 214.101H41.7089V206.273H39.945V214.101ZM44.4725 204.353V206.322H43.237V207.704H44.4725V212.024C44.4725 213.536 45.1866 214.137 46.979 214.137C47.3218 214.137 47.6503 214.108 47.9074 214.058V212.697C47.6931 212.719 47.5574 212.733 47.3075 212.733C46.5648 212.733 46.2363 212.382 46.2363 211.602V207.704H47.9074V206.322H46.2363V204.353H44.4725ZM51.8279 214.23C52.849 214.23 53.7059 213.786 54.1415 213.027H54.263V214.101H55.9696V208.751C55.9696 207.096 54.8414 206.122 52.8347 206.122C50.9781 206.122 49.6855 206.995 49.5427 208.364H51.2137C51.378 207.827 51.9349 207.533 52.7491 207.533C53.7059 207.533 54.2201 207.97 54.2201 208.751V209.424L52.2063 209.545C50.3068 209.653 49.2427 210.477 49.2427 211.88C49.2427 213.313 50.3211 214.23 51.8279 214.23ZM52.3492 212.862C51.5636 212.862 50.9995 212.468 50.9995 211.795C50.9995 211.143 51.4636 210.778 52.4562 210.713L54.2201 210.591V211.229C54.2201 212.16 53.4203 212.862 52.3492 212.862ZM64.032 210.212H66.0744L68.0953 214.101H70.2019L67.9525 209.933C69.1807 209.488 69.8948 208.349 69.8948 206.982C69.8948 205.005 68.538 203.765 66.3743 203.765H62.1896V214.101H64.032V210.212ZM64.032 205.262H66.1172C67.2883 205.262 68.0024 205.929 68.0024 207.017C68.0024 208.127 67.3312 208.765 66.16 208.765H64.032V205.262ZM75.0722 214.258C77.4073 214.258 78.8284 212.725 78.8284 210.183C78.8284 207.655 77.4002 206.122 75.0722 206.122C72.7513 206.122 71.3159 207.662 71.3159 210.183C71.3159 212.725 72.7299 214.258 75.0722 214.258ZM75.0722 212.805C73.8368 212.805 73.1298 211.844 73.1298 210.19C73.1298 208.536 73.8368 207.576 75.0722 207.576C76.3004 207.576 77.0074 208.536 77.0074 210.19C77.0074 211.844 76.3076 212.805 75.0722 212.805ZM80.4352 208.507C80.4352 209.682 81.1421 210.369 82.6418 210.713L84.0271 211.035C84.7698 211.207 85.1053 211.494 85.1053 211.938C85.1053 212.532 84.4838 212.941 83.5916 212.941C82.706 212.941 82.156 212.583 81.9845 212.003H80.2352C80.3709 213.413 81.5994 214.258 83.5486 214.258C85.4986 214.258 86.8766 213.263 86.8766 211.766C86.8766 210.613 86.1835 209.976 84.691 209.632L83.313 209.324C82.5273 209.137 82.156 208.858 82.156 208.413C82.156 207.834 82.7629 207.44 83.5697 207.44C84.3985 207.44 84.9201 207.798 85.0485 208.349H86.7125C86.5833 206.938 85.4198 206.122 83.5632 206.122C81.7205 206.122 80.4352 207.103 80.4352 208.507ZM93.7601 211.959C93.5033 212.547 92.8964 212.876 92.0181 212.876C90.8538 212.876 90.1038 212.046 90.0616 210.721V210.627H95.5175V210.061C95.5175 207.604 94.1818 206.122 91.9539 206.122C89.6903 206.122 88.283 207.704 88.283 210.219C88.283 212.725 89.6683 214.258 91.9677 214.258C93.8105 214.258 95.117 213.371 95.4387 211.959H93.7601ZM91.9466 207.504C93.011 207.504 93.7105 208.256 93.7463 209.445H90.0689C90.1469 208.271 90.8895 207.504 91.9466 207.504Z" fill="white"/>
<path opacity="0.7" d="M224.3 194.541L226.336 188.799H225.392L223.857 193.474H223.789L222.246 188.799H221.278L223.325 194.541H224.3ZM230.526 194.541H231.47L229.403 188.799H228.447L226.38 194.541H227.292L227.82 192.989H230.002L230.526 194.541ZM228.879 189.813H228.946L229.776 192.273H228.046L228.879 189.813ZM233.358 194.541V188.799H232.469V194.541H233.358ZM234.795 188.799V194.541H236.861C238.567 194.541 239.555 193.482 239.555 191.656C239.555 189.849 238.559 188.799 236.861 188.799H234.795ZM235.683 189.567H236.762C237.948 189.567 238.651 190.343 238.651 191.668C238.651 193.005 237.96 193.773 236.762 193.773H235.683V189.567ZM245.324 194.541V189.567H247.12V188.799H242.634V189.567H244.435V194.541H245.324ZM252.925 194.541V188.799H252.04V191.227H249.1V188.799H248.212V194.541H249.1V191.998H252.04V194.541H252.925ZM255.249 192.332H256.503L257.67 194.541H258.697L257.411 192.193C258.11 191.958 258.523 191.33 258.523 190.553C258.523 189.483 257.781 188.799 256.627 188.799H254.361V194.541H255.249V192.332ZM255.249 189.547H256.503C257.19 189.547 257.61 189.933 257.61 190.574C257.61 191.231 257.213 191.601 256.527 191.601H255.249V189.547ZM260.669 188.799H259.78V192.563C259.78 193.805 260.665 194.68 262.097 194.68C263.538 194.68 264.418 193.805 264.418 192.563V188.799H263.53V192.491C263.53 193.311 263.01 193.888 262.097 193.888C261.189 193.888 260.669 193.311 260.669 192.491V188.799Z" fill="white"/>
<path d="M225.863 214.358C228.327 214.358 229.79 212.36 229.79 208.936C229.79 205.505 228.305 203.507 225.863 203.507C223.414 203.507 221.929 205.505 221.929 208.922C221.929 212.353 223.392 214.358 225.863 214.358ZM225.863 212.861C224.556 212.861 223.793 211.501 223.793 208.922C223.793 206.365 224.571 205.011 225.863 205.011C227.156 205.011 227.927 206.358 227.927 208.922C227.927 211.508 227.17 212.861 225.863 212.861ZM235.404 214.352C238.024 214.352 239.581 212.296 239.581 208.808C239.581 205.384 237.924 203.507 235.461 203.507C233.218 203.507 231.633 205.018 231.633 207.131C231.633 209.116 233.062 210.562 235.025 210.562C236.232 210.562 237.21 210.004 237.696 209.023H237.817C237.796 211.45 236.932 212.84 235.425 212.84C234.54 212.84 233.833 212.353 233.611 211.565H231.776C232.076 213.248 233.518 214.352 235.404 214.352ZM235.468 209.137C234.268 209.137 233.44 208.292 233.44 207.074C233.44 205.906 234.311 205.011 235.475 205.011C236.639 205.011 237.51 205.921 237.51 207.11C237.51 208.284 236.66 209.137 235.468 209.137ZM242.116 216.314L245.815 203.242H244.223L240.517 216.314H242.116ZM249.472 214.101H251.314V203.765H249.479L246.786 205.663V207.403L249.351 205.584H249.472V214.101ZM254.692 214.101H256.62L261.026 205.305V203.765H253.856V205.276H259.17V205.39L254.692 214.101Z" fill="white"/>
<path opacity="0.7" d="M22.5667 111.556C23.8442 111.556 24.7844 110.82 24.9431 109.701H24.0585C23.8997 110.354 23.3244 110.764 22.5667 110.764C21.5352 110.764 20.8925 109.912 20.8925 108.547C20.8925 107.183 21.5352 106.327 22.5627 106.327C23.3166 106.327 23.8918 106.781 24.0585 107.493H24.9431C24.8003 106.343 23.8244 105.535 22.5627 105.535C20.9718 105.535 19.984 106.689 19.984 108.547C19.984 110.402 20.9758 111.556 22.5667 111.556ZM29.6523 111.417H30.5965L28.5296 105.674H27.5734L25.5065 111.417H26.4189L26.9466 109.865H29.1286L29.6523 111.417ZM28.0059 106.689H28.0733L28.9025 109.148H27.1728L28.0059 106.689ZM32.4849 109.208H33.7386L34.905 111.417H35.9325L34.6471 109.069C35.3454 108.834 35.758 108.205 35.758 107.429C35.758 106.359 35.0161 105.674 33.8616 105.674H31.5963V111.417H32.4849V109.208ZM32.4849 106.423H33.7386C34.4249 106.423 34.8454 106.809 34.8454 107.449C34.8454 108.106 34.4487 108.476 33.7624 108.476H32.4849V106.423ZM37.0235 105.674V111.417H39.0904C40.7964 111.417 41.7843 110.358 41.7843 108.532C41.7843 106.725 40.7885 105.674 39.0904 105.674H37.0235ZM37.9121 106.442H38.9913C40.1775 106.442 40.8797 107.218 40.8797 108.544C40.8797 109.881 40.1894 110.649 38.9913 110.649H37.9121V106.442ZM46.0769 111.417V107.246H46.1403L49.08 111.417H49.8815V105.674H49.0166V109.853H48.9531L46.0133 105.674H45.212V111.417H46.0769ZM52.2023 105.674H51.3137V109.439C51.3137 110.68 52.1983 111.556 53.6305 111.556C55.0707 111.556 55.9514 110.68 55.9514 109.439V105.674H55.0627V109.367C55.0627 110.187 54.543 110.764 53.6305 110.764C52.7221 110.764 52.2023 110.187 52.2023 109.367V105.674ZM63.1759 111.417V105.674H62.1364L60.3115 110.167H60.244L58.4231 105.674H57.3836V111.417H58.2088V107.21H58.2644L59.9425 111.313H60.617L62.2951 107.21H62.3507V111.417H63.1759ZM66.9646 111.417C68.1865 111.417 68.9205 110.804 68.9205 109.793C68.9205 109.041 68.4047 108.492 67.6311 108.408V108.341C68.1944 108.245 68.6348 107.708 68.6348 107.107C68.6348 106.224 67.9881 105.674 66.913 105.674H64.612V111.417H66.9646ZM65.5007 106.403H66.7067C67.3653 106.403 67.7502 106.717 67.7502 107.262C67.7502 107.823 67.3415 108.118 66.5559 108.118H65.5007V106.403ZM65.5007 110.688V108.798H66.7345C67.5716 108.798 68.0119 109.116 68.0119 109.737C68.0119 110.358 67.5875 110.688 66.786 110.688H65.5007ZM73.6971 110.649H70.9517V108.862H73.5503V108.122H70.9517V106.442H73.6971V105.674H70.063V111.417H73.6971V110.649ZM75.8712 109.208H77.1249L78.2912 111.417H79.3187L78.0333 109.069C78.7316 108.834 79.1442 108.205 79.1442 107.429C79.1442 106.359 78.4023 105.674 77.2478 105.674H74.9825V111.417H75.8712V109.208ZM75.8712 106.423H77.1249C77.8112 106.423 78.2317 106.809 78.2317 107.449C78.2317 108.106 77.835 108.476 77.1486 108.476H75.8712V106.423Z" fill="white"/>
<path d="M24.4821 133.277H26.3491C28.1852 133.277 29.2992 134.198 29.2992 135.699C29.2992 137.147 28.0923 138.12 26.3801 138.12C24.6575 138.12 23.4919 137.23 23.3784 135.844H20.8306C20.9544 138.544 23.1721 140.313 26.411 140.313C29.6293 140.313 32.0223 138.451 32.0223 135.884C32.0223 133.846 30.7536 132.532 28.7319 132.222V132.046C30.3101 131.622 31.4344 130.432 31.4447 128.632C31.455 126.49 29.6705 124.639 26.5038 124.639C23.2753 124.639 21.2535 126.47 21.1195 129.088H23.6156C23.7291 127.597 24.74 126.77 26.3594 126.77C27.9376 126.77 28.8762 127.742 28.8762 128.973C28.8762 130.329 27.8241 131.281 26.2975 131.281H24.4821V133.277ZM41.6478 140.313C45.0826 140.313 47.4345 138.533 47.4345 135.936C47.4345 134.012 46.1554 132.501 44.2162 132.14V131.964C45.815 131.56 46.8258 130.287 46.8258 128.674C46.8258 126.325 44.6803 124.639 41.6581 124.639C38.6358 124.639 36.4799 126.325 36.4799 128.674C36.4799 130.277 37.5115 131.57 39.0999 131.964V132.14C37.1504 132.543 35.8817 134.053 35.8817 135.947C35.8817 138.533 38.2335 140.313 41.6478 140.313ZM41.6581 131.177C40.1418 131.177 39.0999 130.267 39.0999 128.921C39.0999 127.577 40.1315 126.646 41.6581 126.646C43.1744 126.646 44.2058 127.577 44.2058 128.921C44.2058 130.256 43.1641 131.177 41.6581 131.177ZM41.6581 138.275C39.8633 138.275 38.6255 137.23 38.6255 135.729C38.6255 134.219 39.8633 133.174 41.6581 133.174C43.4426 133.174 44.6803 134.219 44.6803 135.729C44.6803 137.23 43.4529 138.275 41.6581 138.275ZM51.4073 129.429H53.9035C53.9035 127.856 54.935 126.78 56.5545 126.78C58.112 126.78 59.0403 127.825 59.0403 129.18C59.0403 130.318 58.5864 131.032 56.7092 132.936L51.5517 138.14V139.94H61.8872V137.726H55.1619V137.55L58.3595 134.395C60.9177 131.88 61.6706 130.67 61.6706 128.932C61.6706 126.449 59.6593 124.639 56.6989 124.639C53.594 124.639 51.4073 126.604 51.4073 129.429ZM71.2754 140.302C75.061 140.302 77.3097 137.333 77.3097 132.294C77.3097 127.349 74.9166 124.639 71.358 124.639C68.1191 124.639 65.8292 126.821 65.8292 129.873C65.8292 132.739 67.8922 134.83 70.7288 134.83C72.472 134.83 73.8851 134.022 74.5865 132.605H74.7619C74.731 136.113 73.4828 138.12 71.3064 138.12C70.0273 138.12 69.0062 137.416 68.6864 136.278H66.0354C66.4687 138.709 68.5523 140.302 71.2754 140.302ZM71.3683 132.77C69.6354 132.77 68.4388 131.55 68.4388 129.791C68.4388 128.105 69.6972 126.811 71.3786 126.811C73.0599 126.811 74.3184 128.125 74.3184 129.842C74.3184 131.539 73.0909 132.77 71.3683 132.77ZM95.1373 139.94H97.6852V137.074H99.6962V134.871H97.6852V125.011H93.9299C91.9084 128.094 89.7943 131.529 87.8654 134.892V137.074H95.1373V139.94ZM90.3305 134.778C91.7849 132.243 93.5074 129.48 95.0341 127.142H95.1787V134.932H90.3305V134.778ZM109.219 140.313C112.653 140.313 115.005 138.533 115.005 135.936C115.005 134.012 113.726 132.501 111.787 132.14V131.964C113.386 131.56 114.397 130.287 114.397 128.674C114.397 126.325 112.251 124.639 109.229 124.639C106.207 124.639 104.05 126.325 104.05 128.674C104.05 130.277 105.082 131.57 106.671 131.964V132.14C104.722 132.543 103.452 134.053 103.452 135.947C103.452 138.533 105.805 140.313 109.219 140.313ZM109.229 131.177C107.712 131.177 106.671 130.267 106.671 128.921C106.671 127.577 107.703 126.646 109.229 126.646C110.745 126.646 111.776 127.577 111.776 128.921C111.776 130.256 110.735 131.177 109.229 131.177ZM109.229 138.275C107.434 138.275 106.196 137.23 106.196 135.729C106.196 134.219 107.434 133.174 109.229 133.174C111.014 133.174 112.251 134.219 112.251 135.729C112.251 137.23 111.024 138.275 109.229 138.275ZM118.978 129.429H121.474C121.474 127.856 122.506 126.78 124.126 126.78C125.683 126.78 126.611 127.825 126.611 129.18C126.611 130.318 126.158 131.032 124.28 132.936L119.122 138.14V139.94H129.458V137.726H122.733V137.55L125.93 134.395C128.489 131.88 129.241 130.67 129.241 128.932C129.241 126.449 127.23 124.639 124.269 124.639C121.165 124.639 118.978 126.604 118.978 129.429ZM139.115 140.313C142.673 140.313 144.788 137.426 144.788 132.481C144.788 127.525 142.643 124.639 139.115 124.639C135.576 124.639 133.431 127.525 133.431 132.46C133.431 137.416 135.545 140.313 139.115 140.313ZM139.115 138.151C137.227 138.151 136.123 136.185 136.123 132.46C136.123 128.766 137.248 126.811 139.115 126.811C140.982 126.811 142.096 128.756 142.096 132.46C142.096 136.195 141.002 138.151 139.115 138.151ZM162.667 139.94H165.215V137.074H167.226V134.871H165.215V125.011H161.46C159.438 128.094 157.324 131.529 155.395 134.892V137.074H162.667V139.94ZM157.86 134.778C159.314 132.243 161.037 129.48 162.563 127.142H162.708V134.932H157.86V134.778ZM176.893 140.302C180.131 140.302 182.422 138.13 182.422 135.068C182.422 132.202 180.348 130.111 177.522 130.111C175.768 130.111 174.366 130.919 173.664 132.336H173.488C173.509 128.766 174.799 126.821 177.006 126.821C178.327 126.821 179.296 127.504 179.554 128.674H182.215C181.844 126.263 179.812 124.639 176.954 124.639C173.262 124.639 170.941 127.618 170.941 132.646C170.941 137.757 173.448 140.302 176.893 140.302ZM176.872 138.13C175.19 138.13 173.932 136.816 173.932 135.088C173.932 133.381 175.149 132.149 176.882 132.149C178.615 132.149 179.812 133.381 179.812 135.139C179.812 136.836 178.543 138.13 176.872 138.13ZM186.363 129.429H188.859C188.859 127.856 189.891 126.78 191.51 126.78C193.068 126.78 193.997 127.825 193.997 129.18C193.997 130.318 193.542 131.032 191.666 132.936L186.508 138.14V139.94H196.844V137.726H190.118V137.55L193.316 134.395C195.873 131.88 196.627 130.67 196.627 128.932C196.627 126.449 194.615 124.639 191.655 124.639C188.55 124.639 186.363 126.604 186.363 129.429ZM206.231 140.302C210.017 140.302 212.266 137.333 212.266 132.294C212.266 127.349 209.873 124.639 206.314 124.639C203.075 124.639 200.785 126.821 200.785 129.873C200.785 132.739 202.848 134.83 205.684 134.83C207.428 134.83 208.841 134.022 209.542 132.605H209.718C209.687 136.113 208.439 138.12 206.262 138.12C204.983 138.12 203.962 137.416 203.643 136.278H200.991C201.424 138.709 203.509 140.302 206.231 140.302ZM206.325 132.77C204.592 132.77 203.395 131.55 203.395 129.791C203.395 128.105 204.653 126.811 206.334 126.811C208.016 126.811 209.274 128.125 209.274 129.842C209.274 131.539 208.047 132.77 206.325 132.77ZM228.598 140.313C231.847 140.313 234.023 138.171 234.023 135.047C234.023 132.046 231.96 130.132 229.413 130.132C227.896 130.132 226.803 130.65 226.142 131.57H225.967L226.38 127.204H233.229V125.011H224.306L223.491 133.691H225.905C226.41 132.708 227.39 132.118 228.659 132.118C230.299 132.118 231.454 133.308 231.454 135.088C231.454 136.919 230.299 138.14 228.587 138.14C227.071 138.14 225.925 137.219 225.76 135.822H223.275C223.388 138.44 225.523 140.313 228.598 140.313ZM243.556 140.313C247.115 140.313 249.229 137.426 249.229 132.481C249.229 127.525 247.084 124.639 243.556 124.639C240.017 124.639 237.872 127.525 237.872 132.46C237.872 137.416 239.987 140.313 243.556 140.313ZM243.556 138.151C241.668 138.151 240.564 136.185 240.564 132.46C240.564 128.766 241.689 126.811 243.556 126.811C245.423 126.811 246.537 128.756 246.537 132.46C246.537 136.195 245.443 138.151 243.556 138.151ZM253.212 129.429H255.708C255.708 127.856 256.739 126.78 258.359 126.78C259.916 126.78 260.845 127.825 260.845 129.18C260.845 130.318 260.391 131.032 258.514 132.936L253.356 138.14V139.94H263.692V137.726H256.967V137.55L260.164 134.395C262.723 131.88 263.475 130.67 263.475 128.932C263.475 126.449 261.464 124.639 258.503 124.639C255.399 124.639 253.212 126.604 253.212 129.429ZM273.287 140.313C276.536 140.313 278.712 138.171 278.712 135.047C278.712 132.046 276.649 130.132 274.101 130.132C272.585 130.132 271.492 130.65 270.831 131.57H270.656L271.069 127.204H277.918V125.011H268.995L268.18 133.691H270.594C271.1 132.708 272.079 132.118 273.349 132.118C274.988 132.118 276.144 133.308 276.144 135.088C276.144 136.919 274.988 138.14 273.276 138.14C271.76 138.14 270.615 137.219 270.45 135.822H267.964C268.077 138.44 270.212 140.313 273.287 140.313Z" fill="white"/>
<path d="M38.3421 71.8733L41.0648 56.5117H45.319L42.6814 71.8733H38.3421Z" fill="white"/>
<path d="M38.3421 71.8733L41.8306 56.5117H45.319L42.6814 71.8733H38.3421Z" fill="white"/>
<path d="M58.0817 56.6827C57.2308 56.3414 55.8695 56 54.1678 56C49.9135 56 46.8505 58.1336 46.8505 61.2059C46.8505 63.5101 48.9776 64.7049 50.6793 65.473C52.381 66.2411 52.8915 66.7531 52.8915 67.4359C52.8915 68.46 51.5301 68.972 50.339 68.972C48.6373 68.972 47.7013 68.716 46.2549 68.1186L45.6593 67.8626L45.0637 71.3616C46.0847 71.7883 47.9566 72.215 49.9135 72.215C54.423 72.215 57.401 70.0815 57.401 66.8385C57.401 65.0463 56.2949 63.6808 53.7423 62.5713C52.2108 61.8033 51.2749 61.3766 51.2749 60.6085C51.2749 59.9257 52.0407 59.243 53.7423 59.243C55.1888 59.243 56.2098 59.499 56.9756 59.8404L57.401 60.0111L58.0817 56.6827Z" fill="white"/>
<path d="M58.0817 56.6827C57.2308 56.3414 55.8695 56 54.1678 56C49.9135 56 47.6163 58.1336 47.6163 61.2059C47.6163 63.5101 48.9776 64.7049 50.6793 65.473C52.381 66.2411 52.8915 66.7531 52.8915 67.4359C52.8915 68.46 51.5301 68.972 50.339 68.972C48.6373 68.972 47.7013 68.716 46.2549 68.1186L45.6593 67.8626L45.0637 71.3616C46.0847 71.7883 47.9566 72.215 49.9135 72.215C54.423 72.215 57.401 70.0815 57.401 66.8385C57.401 65.0463 56.2949 63.6808 53.7423 62.5713C52.2108 61.8033 51.2749 61.3766 51.2749 60.6085C51.2749 59.9257 52.0407 59.243 53.7423 59.243C55.1888 59.243 56.2098 59.499 56.9756 59.8404L57.401 60.0111L58.0817 56.6827Z" fill="white"/>
<path d="M65.3989 56.5117C64.3779 56.5117 63.6121 56.5971 63.1867 57.6212L56.8054 71.8733H61.3999L62.2508 69.313H67.6962L68.2067 71.8733H72.2907L68.7172 56.5117H65.3989ZM63.442 66.7528C63.6972 65.9847 65.1436 62.2296 65.1436 62.2296C65.1436 62.2296 65.484 61.2909 65.7392 60.6935L65.9945 62.1443C65.9945 62.1443 66.8453 65.9847 67.0155 66.8381H63.442V66.7528Z" fill="white"/>
<path d="M66.4199 56.5117C65.3989 56.5117 64.6331 56.5971 64.2077 57.6212L56.8054 71.8733H61.3999L62.2508 69.313H67.6962L68.2067 71.8733H72.2907L68.7172 56.5117H66.4199ZM63.442 66.7528C63.7823 65.8994 65.1436 62.2296 65.1436 62.2296C65.1436 62.2296 65.484 61.2909 65.7392 60.6935L65.9945 62.1443C65.9945 62.1443 66.8453 65.9847 67.0155 66.8381H63.442V66.7528Z" fill="white"/>
<path d="M30.5143 67.2635L30.0889 65.0446C29.3232 62.4843 26.8557 59.668 24.133 58.3025L27.9618 71.9573H32.5564L39.4482 56.5957H34.8536L30.5143 67.2635Z" fill="white"/>
<path d="M30.5143 67.2635L30.0889 65.0446C29.3232 62.4843 26.8557 59.668 24.133 58.3025L27.9618 71.9573H32.5564L39.4482 56.5957H35.7045L30.5143 67.2635Z" fill="white"/>
<path d="M18.6876 56.5117L19.4533 56.6824C24.8987 57.9625 28.6424 61.2055 30.0889 65.0459L28.5574 57.7919C28.3021 56.7677 27.5363 56.5117 26.6004 56.5117H18.6876Z" fill="white"/>
<path d="M18.6876 56.5117C24.133 57.7919 28.6424 61.1202 30.0889 64.9606L28.6424 58.9013C28.3872 57.8772 27.5363 57.2798 26.6004 57.2798L18.6876 56.5117Z" fill="white"/>
<path d="M18.6876 56.5117C24.133 57.7919 28.6424 61.1202 30.0889 64.9606L29.0679 61.6322C28.8126 60.6081 28.4723 59.584 27.2811 59.1573L18.6876 56.5117Z" fill="white"/>
<path d="M34.7684 66.753L31.8756 63.8513L30.5142 67.0943L30.1739 64.9608C29.4081 62.4005 26.9407 59.5842 24.218 58.2188L28.0468 71.8735H32.6413L34.7684 66.753Z" fill="white"/>
<path d="M42.6814 71.8742L39.0228 68.1191L38.3421 71.8742H42.6814Z" fill="white"/>
<path d="M52.4661 66.582C52.8065 66.9234 52.9766 67.1794 52.8916 67.5208C52.8916 68.5449 51.5302 69.057 50.339 69.057C48.6373 69.057 47.7014 68.8009 46.255 68.2035L45.6594 67.9475L45.0638 71.4465C46.0848 71.8732 47.9567 72.3 49.9136 72.3C52.6363 72.3 54.8485 71.5319 56.1248 70.1664L52.4661 66.582Z" fill="white"/>
<path d="M57.4009 71.8751H61.3999L62.2508 69.3149H67.6962L68.2067 71.8751H72.2907L70.8443 65.6452L65.7392 60.6953L65.9945 62.0608C65.9945 62.0608 66.8453 65.9012 67.0155 66.7546H63.4419C63.7823 65.9012 65.1436 62.2315 65.1436 62.2315C65.1436 62.2315 65.484 61.2927 65.7392 60.6953" fill="white"/>
</g>
</svg>
