<svg width="15" height="15" viewBox="0 0 15 15" fill="none" xmlns="http://www.w3.org/2000/svg">
<path d="M3.32433 9.06462L2.80215 11.0138L0.893816 11.0541C0.323468 9.99638 0 8.78607 0 7.49996C0 6.25629 0.302468 5.08348 0.838582 4.05078H0.839023L2.53798 4.36225L3.28224 6.05106C3.12642 6.5052 3.04153 6.9927 3.04153 7.49996C3.04162 8.05045 3.14133 8.57801 3.32433 9.06462Z" fill="#FBBB00"/>
<path d="M14.8688 6.09961C14.955 6.55331 14.9999 7.02184 14.9999 7.50069C14.9999 8.03768 14.9434 8.56144 14.8359 9.06667C14.4708 10.7858 13.5168 12.2871 12.1952 13.3494L12.1949 13.3491L10.0549 13.2398L9.75203 11.3491C10.629 10.8349 11.3142 10.0301 11.6753 9.06667H7.66484V6.09961H11.7338H14.8688Z" fill="#518EF8"/>
<path d="M12.1947 13.3481L12.1951 13.3485C10.9099 14.3816 9.27714 14.9997 7.49983 14.9997C4.64368 14.9997 2.16049 13.4033 0.893707 11.0541L3.32422 9.06445C3.95756 10.7549 5.58823 11.9581 7.49983 11.9581C8.32156 11.9581 9.09132 11.736 9.75193 11.3482L12.1947 13.3481Z" fill="#28B446"/>
<path d="M12.2872 1.72663L9.85746 3.71573C9.17382 3.28841 8.36577 3.04153 7.49992 3.04153C5.54499 3.04153 3.88389 4.30011 3.28222 6.05104L0.839003 4.05076H0.838562C2.08682 1.64422 4.60133 0 7.49992 0C9.31967 0 10.9883 0.648215 12.2872 1.72663Z" fill="#F14336"/>
</svg>
