<svg width="15" height="17" viewBox="0 0 15 17" fill="none" xmlns="http://www.w3.org/2000/svg">
<path d="M5.93358 16.9994H3.12296C2.98334 16.9994 2.8501 16.9407 2.75573 16.8378C2.6614 16.7348 2.61462 16.597 2.62677 16.4579L3.82648 2.74564C3.84903 2.48838 4.06442 2.29102 4.32264 2.29102H10.8534C12.0383 2.29102 13.1152 2.75401 13.8856 3.59476C14.6596 4.43952 15.0286 5.56017 14.9245 6.75029C14.8221 7.92085 14.272 9.01949 13.3756 9.84377C12.4787 10.6685 11.3395 11.1227 10.1678 11.1227H6.90412L6.42977 16.5448C6.40723 16.802 6.19184 16.9994 5.93358 16.9994Z" fill="#507BE9"/>
<path d="M10.8534 2.29102H7.47083V11.1227H10.1679C11.3395 11.1227 12.4788 10.6685 13.3756 9.84373C14.272 9.01945 14.8221 7.92081 14.9245 6.75026C15.0287 5.56014 14.6597 4.43949 13.8856 3.59472C13.1152 2.75404 12.0383 2.29102 10.8534 2.29102Z" fill="#3266C8"/>
<path d="M3.3087 14.7083H0.498086C0.358465 14.7083 0.225219 14.6497 0.130855 14.5468C0.0365234 14.4438 -0.0102605 14.306 0.00189203 14.1669L1.2016 0.454623C1.22415 0.197362 1.43954 0 1.69776 0H8.22847C9.41344 0 10.4903 0.46299 11.2607 1.30377C12.0348 2.1485 12.4038 3.26916 12.2997 4.45924C12.1972 5.62983 11.6472 6.72844 10.7508 7.55275C9.85389 8.37746 8.71467 8.83168 7.54299 8.83168H4.27924L3.8049 14.2537C3.78232 14.511 3.56693 14.7083 3.3087 14.7083Z" fill="#7DBEFF"/>
<path d="M8.22843 0H7.47083V8.83165H7.54294C8.71463 8.83165 9.85388 8.37743 10.7507 7.55272C11.6471 6.7284 12.1972 5.6298 12.2996 4.45921C12.4037 3.26912 12.0348 2.14847 11.2607 1.30374C10.4903 0.462991 9.4134 0 8.22843 0Z" fill="#6496F7"/>
<path d="M4.32273 2.29105C4.06451 2.29105 3.84908 2.48841 3.82657 2.74567L2.78003 14.7075H3.30876C3.56699 14.7075 3.78241 14.5102 3.80492 14.2529L4.27927 8.83083H7.54301C8.7147 8.83083 9.85395 8.3766 10.7508 7.55189C11.6472 6.72758 12.1973 5.62897 12.2997 4.45838C12.3619 3.7467 12.2549 3.05995 11.9933 2.44206C11.6302 2.34262 11.2478 2.29102 10.8534 2.29102H4.32273V2.29105Z" fill="#6496F7"/>
<path d="M10.8534 2.29102H7.47083V8.83079H7.54294C8.71463 8.83079 9.85388 8.37657 10.7507 7.55186C11.6471 6.72755 12.1972 5.62894 12.2996 4.45835C12.3619 3.74666 12.2548 3.05991 11.9933 2.44203C11.6301 2.34262 11.2478 2.29102 10.8534 2.29102Z" fill="#507BE9"/>
</svg>
