<svg width="30" height="10" viewBox="0 0 30 10" fill="none" xmlns="http://www.w3.org/2000/svg">
<path d="M11 8.85658L12.5238 0.285156H14.9048L13.4286 8.85658H11Z" fill="#3C58BF"/>
<path d="M11 8.85658L12.9524 0.285156H14.9048L13.4286 8.85658H11Z" fill="#293688"/>
<path d="M22.0476 0.380952C21.5714 0.190476 20.8095 0 19.8571 0C17.4762 0 15.7619 1.19048 15.7619 2.90476C15.7619 4.19047 16.9524 4.85714 17.9048 5.28571C18.8571 5.71428 19.1429 6 19.1429 6.38095C19.1429 6.95238 18.3809 7.23809 17.7143 7.23809C16.7619 7.23809 16.2381 7.09524 15.4286 6.7619L15.0952 6.61904L14.7619 8.57143C15.3333 8.80952 16.3809 9.04762 17.4762 9.04762C20 9.04762 21.6667 7.85714 21.6667 6.04762C21.6667 5.04762 21.0476 4.28571 19.619 3.66667C18.7619 3.23809 18.2381 3 18.2381 2.57143C18.2381 2.19048 18.6667 1.80952 19.619 1.80952C20.4286 1.80952 21 1.95238 21.4286 2.14286L21.6667 2.23809L22.0476 0.380952Z" fill="#3C58BF"/>
<path d="M22.0476 0.380952C21.5714 0.190476 20.8095 0 19.8571 0C17.4762 0 16.1905 1.19048 16.1905 2.90476C16.1905 4.19047 16.9524 4.85714 17.9048 5.28571C18.8571 5.71428 19.1429 6 19.1429 6.38095C19.1429 6.95238 18.3809 7.23809 17.7143 7.23809C16.7619 7.23809 16.2381 7.09524 15.4286 6.7619L15.0952 6.61904L14.7619 8.57143C15.3333 8.80952 16.3809 9.04762 17.4762 9.04762C20 9.04762 21.6667 7.85714 21.6667 6.04762C21.6667 5.04762 21.0476 4.28571 19.619 3.66667C18.7619 3.23809 18.2381 3 18.2381 2.57143C18.2381 2.19048 18.6667 1.80952 19.619 1.80952C20.4286 1.80952 21 1.95238 21.4286 2.14286L21.6667 2.23809L22.0476 0.380952Z" fill="#293688"/>
<path d="M26.1429 0.285156C25.5714 0.285156 25.1429 0.332776 24.9048 0.904204L21.3333 8.85658H23.9048L24.3809 7.42801H27.4286L27.7143 8.85658H30L28 0.285156H26.1429ZM25.0476 5.99944C25.1905 5.57087 26 3.47563 26 3.47563C26 3.47563 26.1905 2.95182 26.3333 2.61849L26.4762 3.42801C26.4762 3.42801 26.9524 5.57087 27.0476 6.04706H25.0476V5.99944Z" fill="#3C58BF"/>
<path d="M26.7143 0.285156C26.1429 0.285156 25.7143 0.332776 25.4762 0.904204L21.3333 8.85658H23.9048L24.3809 7.42801H27.4286L27.7143 8.85658H30L28 0.285156H26.7143ZM25.0476 5.99944C25.2381 5.52325 26 3.47563 26 3.47563C26 3.47563 26.1905 2.95182 26.3333 2.61849L26.4762 3.42801C26.4762 3.42801 26.9524 5.57087 27.0476 6.04706H25.0476V5.99944Z" fill="#293688"/>
<path d="M6.61905 6.28441L6.38095 5.04632C5.95238 3.61774 4.57143 2.04632 3.04762 1.28441L5.19048 8.90346H7.76191L11.619 0.332031H9.04762L6.61905 6.28441Z" fill="#3C58BF"/>
<path d="M6.61905 6.28441L6.38095 5.04632C5.95238 3.61774 4.57143 2.04632 3.04762 1.28441L5.19048 8.90346H7.76191L11.619 0.332031H9.52381L6.61905 6.28441Z" fill="#293688"/>
<path d="M0 0.285156L0.428571 0.380395C3.47619 1.09468 5.57143 2.9042 6.38095 5.04706L5.52381 0.999442C5.38095 0.428013 4.95238 0.285156 4.42857 0.285156H0Z" fill="#FFBC00"/>
<path d="M0 0.285156C3.04762 0.999442 5.57143 2.85658 6.38095 4.99944L5.57143 1.61849C5.42857 1.04706 4.95238 0.713728 4.42857 0.713728L0 0.285156Z" fill="#F7981D"/>
<path d="M0 0.285156C3.04762 0.999442 5.57143 2.85658 6.38095 4.99944L5.80952 3.1423C5.66667 2.57087 5.47619 1.99944 4.80952 1.76135L0 0.285156Z" fill="#ED7C00"/>
<path d="M9.00001 6.00019L7.38096 4.38114L6.61905 6.19066L6.42858 5.00019C6.00001 3.57161 4.61905 2.00019 3.09525 1.23828L5.2381 8.85733H7.80953L9.00001 6.00019Z" fill="#051244"/>
<path d="M13.4286 8.85696L11.381 6.76172L11 8.85696H13.4286Z" fill="#051244"/>
<path d="M18.9048 5.9043C19.0952 6.09477 19.1905 6.23763 19.1429 6.42811C19.1429 6.99954 18.381 7.28525 17.7143 7.28525C16.7619 7.28525 16.2381 7.14239 15.4286 6.80906L15.0953 6.6662L14.7619 8.61858C15.3333 8.85668 16.381 9.09477 17.4762 9.09477C19 9.09477 20.2381 8.6662 20.9524 7.9043L18.9048 5.9043Z" fill="#051244"/>
<path d="M21.6667 8.85723H23.9048L24.381 7.42866H27.4286L27.7143 8.85723H30L29.1905 5.38104L26.3333 2.61914L26.4762 3.38104C26.4762 3.38104 26.9524 5.5239 27.0476 6.00009H25.0476C25.2381 5.5239 26 3.47628 26 3.47628C26 3.47628 26.1905 2.95247 26.3333 2.61914" fill="#051244"/>
</svg>
